<svg width="13" height="12" viewBox="0 0 13 12" fill="none" xmlns="http://www.w3.org/2000/svg">
<path d="M11.3748 1.5H2.70817C2.56451 1.5 2.42674 1.55268 2.32515 1.64645C2.22357 1.74021 2.1665 1.86739 2.1665 2V3.295C2.1665 3.5565 2.28188 3.8135 2.4823 3.9985L5.4165 6.707V10.5C5.41661 10.5852 5.44027 10.6689 5.48524 10.7433C5.53021 10.8177 5.59501 10.8803 5.67349 10.9251C5.75198 10.9699 5.84156 10.9955 5.93374 10.9994C6.02593 11.0033 6.11768 10.9855 6.2003 10.9475L8.36696 9.9475C8.55059 9.8625 8.6665 9.6895 8.6665 9.5V6.707L11.6007 3.9985C11.8011 3.8135 11.9165 3.5565 11.9165 3.295V2C11.9165 1.86739 11.8594 1.74021 11.7579 1.64645C11.6563 1.55268 11.5185 1.5 11.3748 1.5ZM7.74188 6.1465C7.69148 6.19285 7.65151 6.24795 7.62428 6.30862C7.59704 6.36929 7.58307 6.43433 7.58317 6.5V9.191L6.49984 9.691V6.5C6.49994 6.43433 6.48597 6.36929 6.45873 6.30862C6.4315 6.24795 6.39153 6.19285 6.34113 6.1465L3.24984 3.295V2.5H10.8337L10.8348 3.2915L7.74188 6.1465Z" fill="black"/>
</svg>
