<svg width="14" height="14" viewBox="0 0 14 14" fill="none" xmlns="http://www.w3.org/2000/svg">
<path d="M3.9375 1.75V2.1875H2.1875V11.8125H11.8125V2.1875H10.0625V1.75H9.1875V2.1875H4.8125V1.75H3.9375ZM3.0625 3.0625H3.9375V3.5H4.8125V3.0625H9.1875V3.5H10.0625V3.0625H10.9375V3.9375H3.0625V3.0625ZM3.0625 4.8125H10.9375V10.9375H3.0625V4.8125ZM5.6875 5.6875V6.5625H6.5625V5.6875H5.6875ZM7.4375 5.6875V6.5625H8.3125V5.6875H7.4375ZM9.1875 5.6875V6.5625H10.0625V5.6875H9.1875ZM3.9375 7.4375V8.3125H4.8125V7.4375H3.9375ZM5.6875 7.4375V8.3125H6.5625V7.4375H5.6875ZM7.4375 7.4375V8.3125H8.3125V7.4375H7.4375ZM9.1875 7.4375V8.3125H10.0625V7.4375H9.1875ZM3.9375 9.1875V10.0625H4.8125V9.1875H3.9375ZM5.6875 9.1875V10.0625H6.5625V9.1875H5.6875ZM7.4375 9.1875V10.0625H8.3125V9.1875H7.4375Z" fill="black"/>
</svg>
