<svg width="21" height="21" viewBox="0 0 21 21" fill="none" xmlns="http://www.w3.org/2000/svg">
<path d="M9.71485 6.9375V9.28826L8.88469 9.00058C8.4655 8.85263 8.21069 8.7129 8.21069 7.99781C8.21069 7.41423 8.64632 6.9375 9.18059 6.9375H9.71485V6.9375Z" fill="#262424"/>
<path d="M12.4519 12.3207C12.4519 12.9043 12.0163 13.381 11.482 13.381H10.9478V11.0303L11.7779 11.318C12.1971 11.4659 12.4519 11.6056 12.4519 12.3207Z" fill="#262424"/>
<path d="M13.7752 1.93945H6.88731C3.89544 1.93945 2.11182 3.72307 2.11182 6.71495V13.6028C2.11182 16.5947 3.89544 18.3783 6.88731 18.3783H13.7752C16.7671 18.3783 18.5507 16.5947 18.5507 13.6028V6.71495C18.5507 3.72307 16.7671 1.93945 13.7752 1.93945ZM12.1889 10.1589C12.83 10.3808 13.6848 10.8493 13.6848 12.3206C13.6848 13.5864 12.6985 14.6138 11.482 14.6138H10.9477V15.0906C10.9477 15.4276 10.6683 15.707 10.3313 15.707C9.99426 15.707 9.7148 15.4276 9.7148 15.0906V14.6138H9.4189C8.07091 14.6138 6.97773 13.4713 6.97773 12.074C6.97773 11.737 7.24897 11.4576 7.59418 11.4576C7.93118 11.4576 8.21064 11.737 8.21064 12.074C8.21064 12.7973 8.75313 13.3809 9.4189 13.3809H9.7148V10.5945L8.47366 10.1589C7.83255 9.93697 6.97773 9.46846 6.97773 7.99718C6.97773 6.73139 7.96406 5.70396 9.18054 5.70396H9.7148V5.22723C9.7148 4.89023 9.99426 4.61077 10.3313 4.61077C10.6683 4.61077 10.9477 4.89023 10.9477 5.22723V5.70396H11.2436C12.5916 5.70396 13.6848 6.84646 13.6848 8.24376C13.6848 8.58076 13.4135 8.86022 13.0683 8.86022C12.7313 8.86022 12.4519 8.58076 12.4519 8.24376C12.4519 7.52045 11.9094 6.93687 11.2436 6.93687H10.9477V9.72326L12.1889 10.1589Z" fill="#262424"/>
</svg>
