<svg width="21" height="20" viewBox="0 0 21 20" fill="none" xmlns="http://www.w3.org/2000/svg">
<path d="M18.1398 9.11413V3.52491C18.1398 2.29199 17.6138 1.79883 16.3069 1.79883H12.9863C11.6794 1.79883 11.1533 2.29199 11.1533 3.52491V9.11413C11.1533 10.347 11.6794 10.8402 12.9863 10.8402H16.3069C17.6138 10.8402 18.1398 10.347 18.1398 9.11413Z" fill="#262424"/>
<path d="M9.50947 10.9224V16.5116C9.50947 17.7445 8.98343 18.2377 7.67654 18.2377H4.35588C3.04899 18.2377 2.52295 17.7445 2.52295 16.5116V10.9224C2.52295 9.68946 3.04899 9.19629 4.35588 9.19629H7.67654C8.98343 9.19629 9.50947 9.68946 9.50947 10.9224Z" fill="#262424"/>
<path d="M18.1398 16.5119V14.2105C18.1398 12.9775 17.6138 12.4844 16.3069 12.4844H12.9863C11.6794 12.4844 11.1533 12.9775 11.1533 14.2105V16.5119C11.1533 17.7448 11.6794 18.238 12.9863 18.238H16.3069C17.6138 18.238 18.1398 17.7448 18.1398 16.5119Z" fill="#262424"/>
<path d="M9.50947 5.82636V3.52491C9.50947 2.29199 8.98343 1.79883 7.67654 1.79883H4.35588C3.04899 1.79883 2.52295 2.29199 2.52295 3.52491V5.82636C2.52295 7.05927 3.04899 7.55244 4.35588 7.55244H7.67654C8.98343 7.55244 9.50947 7.05927 9.50947 5.82636Z" fill="#262424"/>
</svg>
