<svg width="21" height="20" viewBox="0 0 21 20" fill="none" xmlns="http://www.w3.org/2000/svg">
<path d="M17.5176 8.24066L18.0026 16.3697C18.019 16.5916 17.9121 16.7396 17.8546 16.8053C17.7889 16.8793 17.6491 16.9944 17.419 16.9944H15.1751L16.9505 8.24066H17.5176ZM18.4218 5.07617L18.4135 5.09261C18.43 5.28988 18.4135 5.49536 18.3642 5.70085L12.3065 16.8218C12.1092 17.6519 11.3695 18.2273 10.5146 18.2273H17.419C18.4793 18.2273 19.3177 17.3314 19.2355 16.2711L18.4218 5.07617Z" fill="#262424"/>
<path d="M9.75041 1.98613C9.83261 1.65735 9.62712 1.32036 9.29835 1.23816C8.96957 1.16419 8.63257 1.36145 8.55038 1.69023L8.1394 3.39166H9.4052L9.75041 1.98613Z" fill="#262424"/>
<path d="M15.1751 1.96101C15.249 1.62401 15.0353 1.30346 14.6983 1.22948C14.3696 1.15551 14.0408 1.36921 13.9668 1.70621L13.5969 3.40763H14.8627L15.1751 1.96101Z" fill="#262424"/>
<path d="M18.2741 4.52629C18.0028 3.86874 17.3617 3.40023 16.5726 3.40023H14.863L14.4027 5.52906C14.3369 5.81674 14.0821 6.01401 13.8027 6.01401C13.7616 6.01401 13.7123 6.01401 13.6712 5.99757C13.3424 5.9236 13.1287 5.59482 13.1944 5.26604L13.5972 3.39201H9.40528L8.88745 5.52906C8.82169 5.80852 8.56689 5.99757 8.28743 5.99757C8.23811 5.99757 8.1888 5.98935 8.13948 5.98113C7.8107 5.89894 7.60522 5.57016 7.68741 5.23316L8.13126 3.38379H6.46271C5.65721 3.38379 4.94212 3.90983 4.70375 4.68246L1.24337 15.8198C0.881714 17.0116 1.76119 18.2281 3.00233 18.2281H13.8027C14.6575 18.2281 15.3972 17.6527 15.5945 16.8226L18.3645 5.70167C18.4138 5.49619 18.4302 5.2907 18.4138 5.09343C18.3973 4.89617 18.3562 4.6989 18.2741 4.52629ZM12.4218 13.9129H5.84626C5.50926 13.9129 5.2298 13.6334 5.2298 13.2964C5.2298 12.9594 5.50926 12.68 5.84626 12.68H12.4218C12.7588 12.68 13.0383 12.9594 13.0383 13.2964C13.0383 13.6334 12.7588 13.9129 12.4218 13.9129ZM13.2438 10.6251H6.6682C6.3312 10.6251 6.05174 10.3457 6.05174 10.0087C6.05174 9.67166 6.3312 9.3922 6.6682 9.3922H13.2438C13.5808 9.3922 13.8602 9.67166 13.8602 10.0087C13.8602 10.3457 13.5808 10.6251 13.2438 10.6251Z" fill="#262424"/>
</svg>
