<svg width="21" height="21" viewBox="0 0 21 21" fill="none" xmlns="http://www.w3.org/2000/svg">
<path d="M11.5027 5.75586H6.24229C6.02858 5.75586 5.8231 5.76408 5.62583 5.78874C3.4148 5.97778 2.30518 7.28468 2.30518 9.69297V12.9807C2.30518 16.2685 3.62029 16.9179 6.24229 16.9179H6.57107C6.75189 16.9179 6.99026 17.0412 7.09711 17.1809L8.08344 18.496C8.51907 19.0796 9.22594 19.0796 9.66158 18.496L10.6479 17.1809C10.7712 17.0165 10.9685 16.9179 11.174 16.9179H11.5027C13.911 16.9179 15.2179 15.8165 15.407 13.5972C15.4316 13.3999 15.4398 13.1945 15.4398 12.9807V9.69297C15.4398 7.07097 14.1247 5.75586 11.5027 5.75586ZM6.00392 12.3314C5.54364 12.3314 5.18198 11.9615 5.18198 11.5095C5.18198 11.0574 5.55186 10.6875 6.00392 10.6875C6.45599 10.6875 6.82587 11.0574 6.82587 11.5095C6.82587 11.9615 6.45599 12.3314 6.00392 12.3314ZM8.87251 12.3314C8.41222 12.3314 8.05056 11.9615 8.05056 11.5095C8.05056 11.0574 8.42044 10.6875 8.87251 10.6875C9.32458 10.6875 9.69445 11.0574 9.69445 11.5095C9.69445 11.9615 9.3328 12.3314 8.87251 12.3314ZM11.7493 12.3314C11.289 12.3314 10.9274 11.9615 10.9274 11.5095C10.9274 11.0574 11.2972 10.6875 11.7493 10.6875C12.2014 10.6875 12.5713 11.0574 12.5713 11.5095C12.5713 11.9615 12.2014 12.3314 11.7493 12.3314Z" fill="#0C1E33"/>
<path d="M18.7273 6.40489V9.69266C18.7273 11.3366 18.2177 12.4544 17.1985 13.0709C16.9519 13.2188 16.6642 13.0215 16.6642 12.7339L16.6725 9.69266C16.6725 6.40489 14.7902 4.52263 11.5024 4.52263L6.49679 4.53085C6.20911 4.53085 6.01184 4.24317 6.15979 3.99659C6.77625 2.97738 7.8941 2.46777 9.52976 2.46777H14.7902C17.4122 2.46777 18.7273 3.78288 18.7273 6.40489Z" fill="#0C1E33"/>
</svg>
