<svg width="21" height="21" viewBox="0 0 21 21" fill="none" xmlns="http://www.w3.org/2000/svg">
<g clip-path="url(#clip0_316_3222)">
<path d="M16.8064 12.7348L15.9845 11.3704C15.8119 11.0663 15.6557 10.4909 15.6557 10.1539V8.07441C15.6557 6.14284 14.5214 4.47429 12.8858 3.69345C12.4584 2.93726 11.6693 2.46875 10.7652 2.46875C9.86924 2.46875 9.06373 2.9537 8.63632 3.71811C7.03353 4.51539 5.92391 6.1675 5.92391 8.07441V10.1539C5.92391 10.4909 5.76774 11.0663 5.59513 11.3622L4.76497 12.7348C4.43619 13.2855 4.36221 13.8938 4.5677 14.4527C4.76497 15.0034 5.23348 15.4308 5.84171 15.6363C7.43629 16.1788 9.11305 16.4418 10.7898 16.4418C12.4666 16.4418 14.1433 16.1788 15.7379 15.6445C16.3133 15.4555 16.7571 15.0198 16.9708 14.4527C17.1845 13.8856 17.127 13.2609 16.8064 12.7348Z" fill="#0C1E33"/>
<path d="M13.0991 17.2719C12.7538 18.2253 11.8415 18.9076 10.773 18.9076C10.1236 18.9076 9.48251 18.6445 9.03044 18.176C8.76742 17.9294 8.57015 17.6007 8.45508 17.2637C8.56193 17.2801 8.66878 17.2883 8.78386 17.3048C8.9729 17.3294 9.17017 17.3541 9.36744 17.3705C9.83594 17.4116 10.3127 17.4363 10.7894 17.4363C11.2579 17.4363 11.7264 17.4116 12.1867 17.3705C12.3593 17.3541 12.5319 17.3459 12.6963 17.3212C12.8278 17.3048 12.9593 17.2883 13.0991 17.2719Z" fill="#0C1E33"/>
</g>
<defs>
<clipPath id="clip0_316_3222">
<rect width="19.7267" height="19.7267" fill="white" transform="translate(0.909668 0.824219)"/>
</clipPath>
</defs>
</svg>
