<svg width="20" height="21" viewBox="0 0 20 21" fill="none" xmlns="http://www.w3.org/2000/svg">
<path d="M9.69551 16.6059C13.1455 16.6059 15.9423 13.8091 15.9423 10.3591C15.9423 6.90908 13.1455 4.1123 9.69551 4.1123C6.24551 4.1123 3.44873 6.90908 3.44873 10.3591C3.44873 13.8091 6.24551 16.6059 9.69551 16.6059Z" fill="#495D72"/>
<path d="M16.1393 17.2627C16.021 17.2627 15.9026 17.2167 15.8171 17.1312L14.5941 15.9082C14.4166 15.7306 14.4166 15.4413 14.5941 15.2572C14.7716 15.0796 15.061 15.0796 15.2451 15.2572L16.4681 16.4802C16.6457 16.6578 16.6457 16.9471 16.4681 17.1312C16.3761 17.2167 16.2577 17.2627 16.1393 17.2627Z" fill="#495D72"/>
</svg>
